<svg width="85" height="85" viewBox="0 0 85 85" fill="none" xmlns="http://www.w3.org/2000/svg">
                        <rect y="42.1138" width="59.5578" height="59.5578" rx="23.1293"
                            transform="rotate(-45 0 42.1138)" fill="#68F3A8" />
                        <path
                            d="M33.0018 24.4777C27.9598 24.4777 23.8994 28.6297 23.8994 33.6717V49.7884C23.8994 52.4013 26.0175 54.5194 28.6304 54.5194H42.1137V33.5848C42.1137 31.1686 41.1536 28.8515 39.4446 27.1434C37.7357 25.4354 35.418 24.4764 33.0018 24.4777Z"
                            fill="#0E1527" />
                        <path
                            d="M51.2161 24.4777C46.174 24.4777 42.1136 28.6297 42.1136 33.6717V54.5194H55.5969C58.2098 54.5194 60.3279 52.4013 60.3279 49.7884V33.5848C60.3279 31.1686 59.3678 28.8515 57.6588 27.1434C55.9499 25.4354 53.6322 24.4764 51.2161 24.4777Z"
                            fill="#0E1527" />
                        <path
                            d="M42.1185 33.5848C39.7023 33.5835 37.3846 34.5425 35.6757 36.2505C33.9667 37.9586 33.0066 40.2757 33.0066 42.6919C33.0068 43.0385 33.0266 43.3848 33.0657 43.7292V55.5707C33.0657 58.1836 35.1839 60.3017 37.7967 60.3017H46.4899C49.1027 60.3017 51.2209 58.1836 51.2209 55.5707V42.7789C51.2209 37.7368 47.1605 33.5848 42.1185 33.5848Z"
                            fill="#F4DC51" />
                    </svg>